<?xml version="1.0" encoding="UTF-8" standalone="no"?>
<!-- Created with Inkscape (http://www.inkscape.org/) -->
<svg id="Слой_1" xmlns:rdf="http://www.w3.org/1999/02/22-rdf-syntax-ns#" xmlns="http://www.w3.org/2000/svg" xml:space="preserve" height="100%" width="100%" version="1.1" xmlns:cc="http://creativecommons.org/ns#" xmlns:xlink="http://www.w3.org/1999/xlink" viewBox="0 0 74.534597 86" xmlns:dc="http://purl.org/dc/elements/1.1/"><metadata id="metadata143"><rdf:RDF><cc:Work rdf:about=""><dc:format>image/svg+xml</dc:format><dc:type rdf:resource="http://purl.org/dc/dcmitype/StillImage"/><dc:title/></cc:Work></rdf:RDF></metadata>
<style id="style3" type="text/css"/>
<g id="g5" transform="matrix(.63474 0 0 .63474 -151.73 -224.6)">
	<path id="path7" stroke-linejoin="round" d="m248.8 460.6c3 0.2 0.9 2.3-2.6 1.7-1.6-0.3-3.7-0.7-5.3-2.5-1.1-1.2-1.9-4-1.5-6.2 1.3-7.9 12.3-10.7 21.4-9.6 3.3 0.4 7.4 0.8 7.4 4.1 0 4.2-12.8 28.3-5.1 26.6 2.3-0.5 5.1-1.7 6.2-3.9 2.9-5.5 5.8-15.3 8-21.6 0.8-2.4-2.6 0.5-2.6-0.4 0.1-1 4.2-3.9 5.7-3.7 1.4 0.2-0.2 3.2-0.7 4.6 6.5-9.9 17.1-18.5 32-19.4 2-0.1 10.9-1.3 13.7-1.4-2.7 2.7-7.4 4.5-11.9 6.5 1.1 0.5 3.1 0.5 4.8 0.6 17 0.2 27-6.4 37.9-14.2 0.3-0.2-5.9 9.3-12.6 13.9-9.7 6.5-23.4 7.8-35.5 6.7-4.7-0.4-24.3 2.2-29.4 10.6-2 5.6-5.8 15-6.9 19.7-0.3 1.4 0.1 1.4 0.9 1 1.3-0.6 2.4-1.8 2.1-0.3s-4.8 4.1-6.4 3.8c-0.9-0.1-0.1-2.5-0.8-2-1.3 1-3 1.5-4.5 1.9-9 2.3-4.4-10.2-2.8-14.2 2.9-7.3 5.2-13.4 4.1-15.1-1.5-2.1-8.7-2.7-13.9-1.1-3 0.9-5.1 2.4-6.1 3.3-4.9 3.9-1.9 10.3 4.4 10.6zm78.4-26 7.2-7.6 2.3-0.3-6.2 7.3-3.3 0.6zm5.3-1.3 7.9-7.8 2.1-0.3-5.6 6.7-4.4 1.4zm14.8-9.7-7.7 7.2c5-2.6 10.8-5.9 15.1-10l-7.4 2.8zm-56.1 54.5v-1.9c0-1 1.3 0 0.9-2-0.2-0.8-1 0.5-1.3-0.1-0.7-1.5-2.1-2.4-2.5-2.7-0.3-0.2 5.5-3.2 5.3-8.2-0.1-2.3-1.8-3.6-4.5-3.5-3.9 0.1-9.4 5.1-5.4 5.7 1 0.1 1-1.4 1.9-2.3 5.4-5.4 9.2 1.8 4.3 5.5-0.9 0.7-2.5 1.5-3.8 2.1-0.9 0.4-2.2 0.7-3.3 1-0.4 0.1-0.6 0.1-0.6 0.5 0 1.2 0.9 0.6 2.6 0.7s3.9 0.8 3.3 2.2c-0.4 0.9-0.5 0.7-2.8 1.6s-8.3 3.3-8.1 8.8c0.1 4.1 4.2 4.4 7.7 2.3 3.7-2.3 6.3-5.1 6.3-9.7zm-8.7 1.4c-1.2 0.7-2.1 1.7-2.6 3.1-1.3 3.5 0.4 6.5 4.8 3.6 2.7-1.8 3.8-5.9 3.8-8.9-0.1-0.2-2.5 0.3-6 2.2zm21.8-19.5c-2.3 0.3-5.3 1.6-6.1 2.8-1 1.5 2.6-0.4 3-0.4 1.1 0.1-6.5 14.7-3.4 15.3 5.9 1.2 10.5-6.8 7.3 1.1-1.9 4.6-4.5 7.8-7.1 6.9-0.8-0.3-1.6-1-2.5-2.1-2.4-2.9-3.6 1.3-0.1 2.7 5.6 2.3 9.3-1.8 11.4-7.3l6.8-17.5c0.5-1.4 0-1.5-0.9-1.1l-1 0.5c-0.6 0.3-0.6 1-1 1.9-1.3 2.9-2.6 8.1-4.9 10.2-1.2 1.1-3.6 2.2-5.1 2.4-0.7 0.1-0.9-0.2-0.7-1.1 0.4-3 5.6-14.4 4.3-14.3zm18.4 2.6c-0.9 0.2-1.3 0.8-1.9 0.9-3.4 0.4 6.6-8.5 6.1 0-0.1 2.4-0.1 5.7 0 8.2 0.1 2.3 0.4 1.2 1.9-0.7 2.6-3.3 4.1-6.9 6.9-10.1 1.2-1.4 2.5-1.5 2.8-0.6 0.9 2.7-5.8 18.6-1.6 13.7 0.4-0.5 1.5 0.2 1 0.7l-2.2 1.9c-1.9 1.6-4.5 1.1-2.5-4.4 6-16.7-1.4-1.1-5.7 3.6-1.4 1.6-3.1 2.2-3.2-0.5-0.1-3.3 0.5-8 0.1-10.7-0.2-1.3-3.6 17-10.7 12-1.4-1-0.5-3.2 1.4-2.3 0.5 0.2 0.3 1.3 1.1 1.3 1.5 0 2.7-2 3.5-3.8 0.9-1.8 4.5-9.4 3-9.2zm21.1-2.4c-1.4 0.6-4.6 2.7-2.7 3.2 0.5 0.1 2.5-1.5 2.1-0.4-1.2 3.5-2.7 6.5-4.1 10.5-1.9 5.7 2.6 4.5 5.8 3.1 1.9-0.8 3.1-1.9 3-1.4-0.7 2.6 1.5 2.5 3.1 1.4l2.2-1.4c0.8-0.5 0.2-0.9-0.3-1-1.2-0.1-3.3 3.2-1.8-1.2 1.1-3.4 4.4-10.1 4.8-13 0.1-1.2-2.2 0.5-2.6 1-2.5 3.9-2.8 11.8-8.8 14.1-9.2 3.5 8.2-19-0.7-14.9z" stroke="#399236" stroke-miterlimit="22.926" stroke-width=".51020" fill="none"/>
	<path id="path9" fill-rule="evenodd" fill="#38a037" d="m248.8 460.6c3 0.2 0.9 2.3-2.6 1.7-1.6-0.3-3.7-0.7-5.3-2.5-1.1-1.2-1.9-4-1.5-6.2 1.3-7.9 12.3-10.7 21.4-9.6 3.3 0.4 7.4 0.8 7.4 4.1 0 4.2-12.8 28.3-5.1 26.6 2.3-0.5 5.1-1.7 6.2-3.9 2.9-5.5 5.8-15.3 8-21.6 0.8-2.4-2.6 0.5-2.6-0.4 0.1-1 4.2-3.9 5.7-3.7 1.4 0.2-0.2 3.2-0.7 4.6 6.5-9.9 17.1-18.5 32-19.4 2-0.1 10.9-1.3 13.7-1.4-2.7 2.7-7.4 4.5-11.9 6.5 1.1 0.5 3.1 0.5 4.8 0.6 17 0.2 27-6.4 37.9-14.2 0.3-0.2-5.9 9.3-12.6 13.9-9.7 6.5-23.4 7.8-35.5 6.7-4.7-0.4-24.3 2.2-29.4 10.6-2 5.6-5.8 15-6.9 19.7-0.3 1.4 0.1 1.4 0.9 1 1.3-0.6 2.4-1.8 2.1-0.3s-4.8 4.1-6.4 3.8c-0.9-0.1-0.1-2.5-0.8-2-1.3 1-3 1.5-4.5 1.9-9 2.3-4.4-10.2-2.8-14.2 2.9-7.3 5.2-13.4 4.1-15.1-1.5-2.1-8.7-2.7-13.9-1.1-3 0.9-5.1 2.4-6.1 3.3-4.9 3.9-1.9 10.3 4.4 10.6zm78.4-26 7.2-7.6 2.3-0.3-6.2 7.3-3.3 0.6zm5.3-1.3 7.9-7.8 2.1-0.3-5.6 6.7-4.4 1.4zm14.8-9.7-7.7 7.2c5-2.6 10.8-5.9 15.1-10l-7.4 2.8zm-56.1 54.5v-1.9c0-1 1.3 0 0.9-2-0.2-0.8-1 0.5-1.3-0.1-0.7-1.5-2.1-2.4-2.5-2.7-0.3-0.2 5.5-3.2 5.3-8.2-0.1-2.3-1.8-3.6-4.5-3.5-3.9 0.1-9.4 5.1-5.4 5.7 1 0.1 1-1.4 1.9-2.3 5.4-5.4 9.2 1.8 4.3 5.5-0.9 0.7-2.5 1.5-3.8 2.1-0.9 0.4-2.2 0.7-3.3 1-0.4 0.1-0.6 0.1-0.6 0.5 0 1.2 0.9 0.6 2.6 0.7s3.9 0.8 3.3 2.2c-0.4 0.9-0.5 0.7-2.8 1.6s-8.3 3.3-8.1 8.8c0.1 4.1 4.2 4.4 7.7 2.3 3.7-2.3 6.3-5.1 6.3-9.7zm-8.7 1.4c-1.2 0.7-2.1 1.7-2.6 3.1-1.3 3.5 0.4 6.5 4.8 3.6 2.7-1.8 3.8-5.9 3.8-8.9-0.1-0.2-2.5 0.3-6 2.2zm21.8-19.5c-2.3 0.3-5.3 1.6-6.1 2.8-1 1.5 2.6-0.4 3-0.4 1.1 0.1-6.5 14.7-3.4 15.3 5.9 1.2 10.5-6.8 7.3 1.1-1.9 4.6-4.5 7.8-7.1 6.9-0.8-0.3-1.6-1-2.5-2.1-2.4-2.9-3.6 1.3-0.1 2.7 5.6 2.3 9.3-1.8 11.4-7.3l6.8-17.5c0.5-1.4 0-1.5-0.9-1.1l-1 0.5c-0.6 0.3-0.6 1-1 1.9-1.3 2.9-2.6 8.1-4.9 10.2-1.2 1.1-3.6 2.2-5.1 2.4-0.7 0.1-0.9-0.2-0.7-1.1 0.4-3 5.6-14.4 4.3-14.3zm18.4 2.6c-0.9 0.2-1.3 0.8-1.9 0.9-3.4 0.4 6.6-8.5 6.1 0-0.1 2.4-0.1 5.7 0 8.2 0.1 2.3 0.4 1.2 1.9-0.7 2.6-3.3 4.1-6.9 6.9-10.1 1.2-1.4 2.5-1.5 2.8-0.6 0.9 2.7-5.8 18.6-1.6 13.7 0.4-0.5 1.5 0.2 1 0.7l-2.2 1.9c-1.9 1.6-4.5 1.1-2.5-4.4 6-16.7-1.4-1.1-5.7 3.6-1.4 1.6-3.1 2.2-3.2-0.5-0.1-3.3 0.5-8 0.1-10.7-0.2-1.3-3.6 17-10.7 12-1.4-1-0.5-3.2 1.4-2.3 0.5 0.2 0.3 1.3 1.1 1.3 1.5 0 2.7-2 3.5-3.8 0.9-1.8 4.5-9.4 3-9.2zm21.1-2.4c-1.4 0.6-4.6 2.7-2.7 3.2 0.5 0.1 2.5-1.5 2.1-0.4-1.2 3.5-2.7 6.5-4.1 10.5-1.9 5.7 2.6 4.5 5.8 3.1 1.9-0.8 3.1-1.9 3-1.4-0.7 2.6 1.5 2.5 3.1 1.4l2.2-1.4c0.8-0.5 0.2-0.9-0.3-1-1.2-0.1-3.3 3.2-1.8-1.2 1.1-3.4 4.4-10.1 4.8-13 0.1-1.2-2.2 0.5-2.6 1-2.5 3.9-2.8 11.8-8.8 14.1-9.2 3.5 8.2-19-0.7-14.9z"/>
	<path id="path11" fill-rule="evenodd" fill="#be1d20" d="m279.7 414.5c21.3 14.2 58.2-5.9 48.2-44.8 35.7 36.7-19.5 80.6-48.2 44.8zm36.2-25.1 0.6 1.6 1.4-0.9-0.4 1.6 1.7 0.1-1.3 1.1 1.3 1.1-1.7 0.1 0.4 1.6-1.4-0.9-0.6 1.6-0.6-1.6-1.4 0.9 0.4-1.6-1.7-0.1 1.3-1.1-1.3-1.1 1.7-0.1-0.4-1.6 1.4 0.9 0.6-1.6zm-40.1 0 0.6 1.6 1.4-0.9-0.4 1.6 1.7 0.1-1.3 1.1 1.3 1.1-1.7 0.1 0.4 1.6-1.4-0.9-0.6 1.6-0.6-1.6-1.4 0.9 0.4-1.6-1.7-0.1 1.3-1.1-1.3-1.1 1.7-0.1-0.4-1.6 1.4 0.9 0.6-1.6zm-11.1-13.7c-17.9 15.9-8.9 54.3 25.9 50.4-5.9-3.2-11.3-6.9-13.9-14.1-9.1-6.4-15.4-21.3-12-36.3zm3-1.1c-4.9 26.7 15 42.1 31.9 39.3 18.7-3 27.5-19.9 24.7-38.8-4.3 6-15.9 18.6-29.1 21.7-9.1-1.4-20.5-8.7-27.5-22.2zm13.1-13.9c-20.8 7.7-12.3 18.9 7.6 29.9-9.1-7.1-17.4-20.9-7.6-29.9zm16.7 29.9c-12.9-1.8-25.9-14.4-15.9-29.5 8.3-12.4 29.3-8.1 31.5 6.8 0.8 5.3-1.7 10.9-7.5 12.9-7.1 2.4-15-0.8-16.3-7.5-0.7-3.7 0.5-7.6 3.6-9.1 3.5-1.8 8.5 0 9.1 3.9 0.1 0.5-0.3 1.1-0.7 0.5-0.5-0.6-0.8-1.3-1.6-2-3.6-2.9-8.3-0.8-7.5 5.5 1.4 10.5 23.3 4.5 13.8-8.2-4-5.3-11.6-5.9-16.5-2.5-3.5 2.4-5.4 6.6-5.3 10.7 0.3 7.6 8.3 13.8 13.7 17.4 0.9 0.7 0.8 1.3-0.4 1.1zm-1.9-5c2.6 1.8 5.2 3.6 7.8 5.3 31.2-17.4 20.2-25.5 8.7-30.3 12.5 14-7.8 24.2-16.5 25z"/>
	<polygon id="polygon13" stroke-linejoin="round" stroke="#ef7d00" points="332.2 404.8 333.5 405.8 331.8 405.9 332.2 407.6 330.8 406.7 330.2 408.2 329.5 406.7 328.1 407.6 328.5 405.9 326.9 405.8 328.2 404.8 326.9 403.7 328.5 403.6 328.1 401.9 329.5 402.8 330.2 401.3 330.2 401.3 330.8 402.8 332.2 401.9 331.8 403.6 333.5 403.7" stroke-miterlimit="22.926" stroke-width=".7087" fill="none"/>
	<g id="g15">
		<defs id="defs17"><polygon id="SVGID_1_" points="332.2 404.8 333.5 405.8 331.8 405.9 332.2 407.6 330.8 406.7 330.2 408.2 329.5 406.7 328.1 407.6 328.5 405.9 326.9 405.8 328.2 404.8 326.9 403.7 328.5 403.6 328.1 401.9 329.5 402.8 330.2 401.3 330.2 401.3 330.8 402.8 332.2 401.9 331.8 403.6 333.5 403.7"/></defs>
		<clipPath id="SVGID_2_">
			<use id="use21" xlink:href="#SVGID_1_" height="841.90002" width="595.29999" y="0" x="0"/>
		</clipPath>
		<g id="g23" clip-path="url(#SVGID_2_)">
			<defs id="defs25"><rect id="SVGID_3_" y="401.3" width="6.6" x="326.9" height="6.9"/></defs>
			<clipPath id="SVGID_4_">
				<use id="use29" xlink:href="#SVGID_3_" height="841.90002" width="595.29999" y="0" x="0"/>
			</clipPath>
			<g id="g31" clip-path="url(#SVGID_4_)">
					<image id="image33" xlink:href="7DBACCB0.png" transform="matrix(.48 0 0 -.48 325.56 409.46)" height="19" width="20"/>
			</g>
		</g>
	</g>
	<polygon id="polygon35" stroke-linejoin="round" stroke="#ef7d00" points="263.1 402 264.4 403.1 262.8 403.2 263.2 404.8 261.8 403.9 261.1 405.5 260.5 403.9 259.1 404.8 259.5 403.2 257.8 403.1 259.1 402 257.8 400.9 259.5 400.8 259.1 399.2 260.5 400.1 261.1 398.5 261.1 398.5 261.8 400.1 263.2 399.2 262.8 400.8 264.4 400.9" stroke-miterlimit="22.926" stroke-width=".7087" fill="none"/>
	<g id="g37">
		<defs id="defs39"><polygon id="SVGID_5_" points="263.1 402 264.4 403.1 262.8 403.2 263.2 404.8 261.8 403.9 261.1 405.5 260.5 403.9 259.1 404.8 259.5 403.2 257.8 403.1 259.1 402 257.8 400.9 259.5 400.8 259.1 399.2 260.5 400.1 261.1 398.5 261.1 398.5 261.8 400.1 263.2 399.2 262.8 400.8 264.4 400.9"/></defs>
		<clipPath id="SVGID_6_">
			<use id="use43" xlink:href="#SVGID_5_" height="841.90002" width="595.29999" y="0" x="0"/>
		</clipPath>
		<g id="g45" clip-path="url(#SVGID_6_)">
			<defs id="defs47"><rect id="SVGID_7_" y="398.5" width="6.6" x="257.8" height="6.9"/></defs>
			<clipPath id="SVGID_8_">
				<use id="use51" xlink:href="#SVGID_7_" height="841.90002" width="595.29999" y="0" x="0"/>
			</clipPath>
			<g id="g53" clip-path="url(#SVGID_8_)">
					<image id="image55" xlink:href="7DBACCB1.png" transform="matrix(.48 0 0 -.48 256.54 406.6)" height="18" width="20"/>
			</g>
		</g>
	</g>
	<path id="path57" stroke-linejoin="round" d="m293.8 413.2c-3.9-3.7-4.8-2.4-8.6-4.7-3.1-1.8-3.9-8.1 0.8-9.4 1.5-0.4 4.1 0.1 5.2 1.9-0.2-2.1 1.3-3.7 2.8-4.3 4.7-1.7 7.3 3.4 5.9 6.7-1.7 4.1-6.4 7.5-6.1 9.8z" stroke="#dadada" stroke-miterlimit="22.926" stroke-width=".7087" fill="none"/>
	<path id="path59" fill-rule="evenodd" fill="#fff" d="m293.8 413.2c-3.9-3.7-4.8-2.4-8.6-4.7-3.1-1.8-3.9-8.1 0.8-9.4 1.5-0.4 4.1 0.1 5.2 1.9-0.2-2.1 1.3-3.7 2.8-4.3 4.7-1.7 7.3 3.4 5.9 6.7-1.7 4.1-6.4 7.5-6.1 9.8z"/>
	<g id="g61">
		<defs id="defs63"><polyline id="SVGID_9_" points="284.6 411.4 284.6 398.5 298.8 398.5 298.8 411.4 284.6 411.4"/></defs>
		<clipPath id="SVGID_10_">
			<use id="use67" xlink:href="#SVGID_9_" height="841.90002" width="595.29999" y="0" x="0"/>
		</clipPath>
		<g id="g69" transform="translate(0 -.000030518)" clip-path="url(#SVGID_10_)">
				<image id="image71" xlink:href="7DBACCB0.jpg" transform="matrix(.2 0 0 -.2008 284.56 411.35)" height="64" width="71"/>
		</g>
	</g>
	<path id="path73" stroke-linejoin="round" d="m271.9 415.9c2.7 0.3 2.6 0.4 3.6 0.2 0.5-0.1 0.8-0.8 0.5-1.3l-0.9-1.6c-0.5-0.9-2-0.5-2.8-0.5 1.8-1.5 0.2-3.5-0.9-4.4-0.5-0.4-0.6-0.4-1 0-1.2 1.4-1 3.2-1.4 4.8-1.6 0.4-3.7 0.4-5.1 1.6-0.4 0.4-0.1 0.6 0.2 1.1 0.8 1.2 2.6 2.4 4.5 0.7-0.1 1.4-1 2.5 1.5 3.2l1.7 0.5c1.1 0.2 0.7-2.5 0.1-4.3z" stroke="#ef7d00" stroke-miterlimit="22.926" stroke-width=".7087" fill="none"/>
	<g id="g75">
		<defs id="defs77"><path id="SVGID_11_" d="m271.9 415.9c2.7 0.3 2.6 0.4 3.6 0.2 0.5-0.1 0.8-0.8 0.5-1.3l-0.9-1.6c-0.5-0.9-2-0.5-2.8-0.5 1.8-1.5 0.2-3.5-0.9-4.4-0.5-0.4-0.6-0.4-1 0-1.2 1.4-1 3.2-1.4 4.8-1.6 0.4-3.7 0.4-5.1 1.6-0.4 0.4-0.1 0.6 0.2 1.1 0.8 1.2 2.6 2.4 4.5 0.7-0.1 1.4-1 2.5 1.5 3.2l1.7 0.5c1.1 0.2 0.7-2.5 0.1-4.3z"/></defs>
		<clipPath id="SVGID_12_">
			<use id="use81" xlink:href="#SVGID_11_" height="841.90002" width="595.29999" y="0" x="0"/>
		</clipPath>
		<g id="g83" clip-path="url(#SVGID_12_)">
			<defs id="defs85"><rect id="SVGID_13_" y="407.9" width="12.7" x="263.5" height="12.6"/></defs>
			<clipPath id="SVGID_14_">
				<use id="use89" xlink:href="#SVGID_13_" height="841.90002" width="595.29999" y="0" x="0"/>
			</clipPath>
			<g id="g91" clip-path="url(#SVGID_14_)">
					<image id="image93" xlink:href="7DBACCB2.png" transform="matrix(.48 0 0 -.48 262.54 421.55)" height="30" width="32"/>
			</g>
		</g>
	</g>
	<path id="path95" stroke-linejoin="round" d="m322.4 415.9c-2.7 0.3-2.6 0.4-3.6 0.2-0.5-0.1-0.8-0.8-0.5-1.3l0.9-1.6c0.5-0.9 2-0.5 2.8-0.5-1.8-1.5-0.2-3.5 0.9-4.4 0.5-0.4 0.6-0.4 1 0 1.2 1.4 1 3.2 1.4 4.8 1.6 0.4 3.7 0.4 5.1 1.6 0.4 0.4 0.1 0.6-0.2 1.1-0.8 1.2-2.6 2.4-4.5 0.7 0.1 1.4 1 2.5-1.5 3.2l-1.7 0.5c-1.2 0.2-0.7-2.5-0.1-4.3z" stroke="#ef7d00" stroke-miterlimit="22.926" stroke-width=".7087" fill="none"/>
	<g id="g97">
		<defs id="defs99"><path id="SVGID_15_" d="m322.4 415.9c-2.7 0.3-2.6 0.4-3.6 0.2-0.5-0.1-0.8-0.8-0.5-1.3l0.9-1.6c0.5-0.9 2-0.5 2.8-0.5-1.8-1.5-0.2-3.5 0.9-4.4 0.5-0.4 0.6-0.4 1 0 1.2 1.4 1 3.2 1.4 4.8 1.6 0.4 3.7 0.4 5.1 1.6 0.4 0.4 0.1 0.6-0.2 1.1-0.8 1.2-2.6 2.4-4.5 0.7 0.1 1.4 1 2.5-1.5 3.2l-1.7 0.5c-1.2 0.2-0.7-2.5-0.1-4.3z"/></defs>
		<clipPath id="SVGID_16_">
			<use id="use103" xlink:href="#SVGID_15_" height="841.90002" width="595.29999" y="0" x="0"/>
		</clipPath>
		<g id="g105" clip-path="url(#SVGID_16_)">
			<defs id="defs107"><rect id="SVGID_17_" y="407.9" width="12.7" x="318" height="12.6"/></defs>
			<clipPath id="SVGID_18_">
				<use id="use111" xlink:href="#SVGID_17_" height="841.90002" width="595.29999" y="0" x="0"/>
			</clipPath>
			<g id="g113" clip-path="url(#SVGID_18_)">
					<image id="image115" xlink:href="7DBACCB3.png" transform="matrix(.48 0 0 -.48 316.77 421.55)" height="30" width="32"/>
			</g>
		</g>
	</g>
	<path id="path117" stroke-linejoin="round" d="m300 413.9c2.5-2.9 6.4-2.6 10.2-4.9 3.1-1.8 3.9-8.1-0.8-9.4-1.5-0.4-4.1 0.1-5.2 1.9 0.2-2.1-1.3-3.7-2.8-4.3-4.7-1.7-8.1 3.7-6.7 7.1 1.7 4.1 5 5.3 5.3 9.6z" stroke="#ef7d00" stroke-miterlimit="22.926" stroke-width=".7087" fill="none"/>
	<g id="g119">
		<defs id="defs121"><path id="SVGID_19_" d="m300 413.9c2.5-2.9 6.4-2.6 10.2-4.9 3.1-1.8 3.9-8.1-0.8-9.4-1.5-0.4-4.1 0.1-5.2 1.9 0.2-2.1-1.3-3.7-2.8-4.3-4.7-1.7-8.1 3.7-6.7 7.1 1.7 4.1 5 5.3 5.3 9.6z"/></defs>
		<clipPath id="SVGID_20_">
			<use id="use125" xlink:href="#SVGID_19_" height="841.90002" width="595.29999" y="0" x="0"/>
		</clipPath>
		<g id="g127" clip-path="url(#SVGID_20_)">
			<defs id="defs129"><rect id="SVGID_21_" y="395.6" width="20.9" x="293.2" height="18.3"/></defs>
			<clipPath id="SVGID_22_">
				<use id="use133" xlink:href="#SVGID_21_" height="841.90002" width="595.29999" y="0" x="0"/>
			</clipPath>
			<g id="g135" clip-path="url(#SVGID_22_)">
					<image id="image137" xlink:href="7DBACCBE.png" transform="matrix(.48 0 0 -.48 292.1 415.21)" height="42" width="48"/>
			</g>
		</g>
	</g>
</g>
</svg>
